<svg xmlns="http://www.w3.org/2000/svg" viewBox="0 0 576 512" fill="black">
  <path d="M298.06 24.06c-19.75 0-35.75 16-35.75 35.75S278.31 95.56 298.06 95.56s35.75-16 35.75-35.75-16-35.75-35.75-35.75zm-58.19 56.31c-8.94-.13-17.75 1.19-26.19 4.06-22.25 7.44-38.69 25.5-44.44 48.06-1.69 6.63-2.44 13.5-2.44 20.38 0 6.5.5 13 .56 19.5l-31.69-5.25c-16.38-2.69-32.81 3.25-44.25 15.19l-30.56 31.88C47.56 226.7 48.81 247.9 63 261.8l46.25 45c11.44 11.19 25.69 18.81 41.19 21.94v93.13H118.5c-20.88 0-37.81 16.94-37.81 37.81 0 9.88 8.13 18 18 18H315.1c9.88 0 18-8.13 18-18 0-20.88-16.94-37.81-37.81-37.81h-32.88v-61.63l35.31-6.06c39.75-6.81 71.44-37.56 78.5-76.5l6.5-36.06c4.63-25.63 18.06-48.25 37.5-64.94l22.88-19.5c13.44-11.5 23.38-26.75 28.5-43.81 2.63-8.94-4.5-17.38-13.69-16.5-16.69 1.56-33.19 4.81-48.25 11.38-13.94 5.94-26.81 13.75-38.5 23.19-3.81-15.19-11.5-29.13-22.13-40.44-17.63-18.63-41.81-28.69-67.25-29.13zm164.6 282.6c-17.5 0-31.69 14.19-31.69 31.69S386.97 426 404.47 426s31.69-14.19 31.69-31.69-14.19-31.69-31.69-31.69zm96.28 2.31c-14.5 0-26.31 11.81-26.31 26.31s11.81 26.31 26.31 26.31 26.31-11.81 26.31-26.31-11.81-26.31-26.31-26.31z"/>
</svg>
